<?xml version="1.0" encoding="utf-8"?>
<!-- Generator: Adobe Illustrator 24.0.2, SVG Export Plug-In . SVG Version: 6.00 Build 0)  -->
<svg version="1.1" id="Layer_1" xmlns="http://www.w3.org/2000/svg" xmlns:xlink="http://www.w3.org/1999/xlink" x="0px" y="0px"
	 viewBox="0 0 480 480" style="enable-background:new 0 0 480 480;" xml:space="preserve">
<style type="text/css">
	.st0{fill:#C5CAE9;}
	.st1{fill:#020F16;}
</style>
<path class="st0" d="M5,57.2C5,28.5,28.5,5,57.2,5h365.6C451.5,5,475,28.5,475,57.2v365.6c0,28.7-23.5,52.2-52.2,52.2H57.2
	C28.5,475,5,451.5,5,422.8V57.2z"/>
<path class="st1" d="M44.2,44.2v391.7h391.7V44.2H44.2z M253.1,331.4H148.6V148.6h39.2v151.4h65.3V331.4z M347.1,228.3l-11.8-1.3
	c-10.4,0-17,3.9-19.6,13.1v91.4h-36.6V193h33.9l1.3,14.4c5.2-11.8,13.1-17,23.5-17c3.9,0,7.8,0,10.4,1.3L347.1,228.3z"/>
</svg>
